<svg width="34" height="34" viewBox="0 0 34 34" fill="none" xmlns="http://www.w3.org/2000/svg">
<g id="basil:sun-solid">
<path id="Vector" d="M17 1.77084C17.2818 1.77084 17.5521 1.88279 17.7513 2.08204C17.9506 2.2813 18.0625 2.55155 18.0625 2.83334V4.25001C18.0625 4.5318 17.9506 4.80205 17.7513 5.00131C17.5521 5.20057 17.2818 5.31251 17 5.31251C16.7182 5.31251 16.448 5.20057 16.2487 5.00131C16.0495 4.80205 15.9375 4.5318 15.9375 4.25001V2.83334C15.9375 2.55155 16.0495 2.2813 16.2487 2.08204C16.448 1.88279 16.7182 1.77084 17 1.77084ZM17 8.85418C14.8396 8.85418 12.7677 9.7124 11.24 11.24C9.7124 12.7677 8.85418 14.8396 8.85418 17C8.85418 19.1604 9.7124 21.2323 11.24 22.76C12.7677 24.2876 14.8396 25.1458 17 25.1458C19.1604 25.1458 21.2323 24.2876 22.76 22.76C24.2876 21.2323 25.1458 19.1604 25.1458 17C25.1458 14.8396 24.2876 12.7677 22.76 11.24C21.2323 9.7124 19.1604 8.85418 17 8.85418ZM7.73501 6.23193C7.53471 6.03829 7.26637 5.93107 6.98779 5.93335C6.7092 5.93564 6.44266 6.04726 6.24557 6.24416C6.04848 6.44107 5.93661 6.7075 5.93406 6.98609C5.93151 7.26467 6.03848 7.53311 6.23193 7.73359L7.23351 8.73518C7.33078 8.83957 7.44808 8.92329 7.57841 8.98137C7.70875 9.03944 7.84944 9.07066 7.9921 9.07318C8.13477 9.0757 8.27647 9.04946 8.40877 8.99602C8.54107 8.94258 8.66126 8.86304 8.76215 8.76215C8.86304 8.66126 8.94258 8.54107 8.99602 8.40877C9.04946 8.27647 9.0757 8.13477 9.07318 7.9921C9.07066 7.84944 9.03944 7.70875 8.98137 7.57841C8.92329 7.44808 8.83957 7.33078 8.73518 7.23351L7.73501 6.23193ZM32.2292 17C32.2292 17.2818 32.1172 17.5521 31.918 17.7513C31.7187 17.9506 31.4485 18.0625 31.1667 18.0625H29.75C29.4682 18.0625 29.198 17.9506 28.9987 17.7513C28.7995 17.5521 28.6875 17.2818 28.6875 17C28.6875 16.7182 28.7995 16.448 28.9987 16.2487C29.198 16.0495 29.4682 15.9375 29.75 15.9375H31.1667C31.4485 15.9375 31.7187 16.0495 31.918 16.2487C32.1172 16.448 32.2292 16.7182 32.2292 17ZM27.7681 7.73501C27.8696 7.63705 27.9506 7.51984 28.0064 7.39024C28.0621 7.26064 28.0915 7.12123 28.0928 6.98015C28.0941 6.83908 28.0672 6.69916 28.0139 6.56855C27.9605 6.43795 27.8817 6.31928 27.782 6.21948C27.6823 6.11967 27.5637 6.04072 27.4331 5.98723C27.3026 5.93375 27.1627 5.9068 27.0216 5.90796C26.8805 5.90912 26.7411 5.93836 26.6114 5.99399C26.4818 6.04961 26.3645 6.1305 26.2664 6.23193L25.2648 7.23351C25.1605 7.33078 25.0767 7.44808 25.0187 7.57841C24.9606 7.70875 24.9294 7.84944 24.9268 7.9921C24.9243 8.13477 24.9506 8.27647 25.004 8.40877C25.0574 8.54107 25.137 8.66126 25.2379 8.76215C25.3388 8.86304 25.4589 8.94258 25.5912 8.99602C25.7235 9.04946 25.8653 9.0757 26.0079 9.07318C26.1506 9.07066 26.2913 9.03944 26.4216 8.98137C26.5519 8.92329 26.6692 8.83957 26.7665 8.73518L27.7681 7.73501ZM17 28.6875C17.2818 28.6875 17.5521 28.7995 17.7513 28.9987C17.9506 29.198 18.0625 29.4682 18.0625 29.75V31.1667C18.0625 31.4485 17.9506 31.7187 17.7513 31.918C17.5521 32.1172 17.2818 32.2292 17 32.2292C16.7182 32.2292 16.448 32.1172 16.2487 31.918C16.0495 31.7187 15.9375 31.4485 15.9375 31.1667V29.75C15.9375 29.4682 16.0495 29.198 16.2487 28.9987C16.448 28.7995 16.7182 28.6875 17 28.6875ZM26.7665 25.2648C26.6692 25.1605 26.5519 25.0767 26.4216 25.0187C26.2913 24.9606 26.1506 24.9294 26.0079 24.9268C25.8653 24.9243 25.7235 24.9506 25.5912 25.004C25.4589 25.0574 25.3388 25.137 25.2379 25.2379C25.137 25.3388 25.0574 25.4589 25.004 25.5912C24.9506 25.7235 24.9243 25.8653 24.9268 26.0079C24.9294 26.1506 24.9606 26.2913 25.0187 26.4216C25.0767 26.5519 25.1605 26.6692 25.2648 26.7665L26.2664 27.7681C26.3637 27.8725 26.481 27.9562 26.6113 28.0143C26.7417 28.0724 26.8824 28.1036 27.025 28.1061C27.1677 28.1086 27.3094 28.0824 27.4417 28.0289C27.574 27.9755 27.6942 27.896 27.7951 27.7951C27.896 27.6942 27.9755 27.574 28.0289 27.4417C28.0824 27.3094 28.1086 27.1677 28.1061 27.025C28.1036 26.8824 28.0724 26.7417 28.0143 26.6113C27.9562 26.481 27.8725 26.3637 27.7681 26.2664L26.7665 25.2648ZM5.31251 17C5.31251 17.2818 5.20057 17.5521 5.00131 17.7513C4.80205 17.9506 4.5318 18.0625 4.25001 18.0625H2.83334C2.55155 18.0625 2.2813 17.9506 2.08204 17.7513C1.88279 17.5521 1.77084 17.2818 1.77084 17C1.77084 16.7182 1.88279 16.448 2.08204 16.2487C2.2813 16.0495 2.55155 15.9375 2.83334 15.9375H4.25001C4.5318 15.9375 4.80205 16.0495 5.00131 16.2487C5.20057 16.448 5.31251 16.7182 5.31251 17ZM8.73518 26.7665C8.92286 26.5651 9.02503 26.2987 9.02018 26.0234C9.01532 25.7482 8.90381 25.4855 8.70914 25.2909C8.51447 25.0962 8.25184 24.9847 7.97658 24.9798C7.70132 24.975 7.43493 25.0772 7.23351 25.2648L6.23193 26.2664C6.04425 26.4678 5.94207 26.7342 5.94693 27.0095C5.95179 27.2848 6.06329 27.5474 6.25796 27.7421C6.45263 27.9367 6.71526 28.0482 6.99052 28.0531C7.26578 28.058 7.53218 27.9558 7.73359 27.7681L8.73518 26.7665Z" fill="#F8F8F8"/>
</g>
</svg>
