<svg width="24" height="25" viewBox="0 0 24 25" fill="none" xmlns="http://www.w3.org/2000/svg">
<g id="github">
<g id="Clip path group">
<mask id="mask0_11_17" style="mask-type:luminance" maskUnits="userSpaceOnUse" x="0" y="0" width="24" height="25">
<g id="akarIconsGithubFill0">
<path id="Vector" d="M0 0.212234H24V24.2122H0V0.212234Z" fill="white"/>
</g>
</mask>
<g mask="url(#mask0_11_17)">
<g id="Group">
<path id="Vector_2" fill-rule="evenodd" clip-rule="evenodd" d="M12 0.212234C5.37 0.212234 0 5.58223 0 12.2122C0 17.5222 3.435 22.0072 8.205 23.5972C8.805 23.7022 9.03 23.3422 9.03 23.0272C9.03 22.7422 9.015 21.7972 9.015 20.7922C6 21.3472 5.22 20.0572 4.98 19.3822C4.845 19.0372 4.26 17.9722 3.75 17.6872C3.33 17.4622 2.73 16.9072 3.735 16.8922C4.68 16.8772 5.355 17.7622 5.58 18.1222C6.66 19.9372 8.385 19.4272 9.075 19.1122C9.18 18.3322 9.495 17.8072 9.84 17.5072C7.17 17.2072 4.38 16.1722 4.38 11.5822C4.38 10.2772 4.845 9.19724 5.61 8.35723C5.49 8.05723 5.07 6.82723 5.73 5.17723C5.73 5.17723 6.735 4.86223 9.03 6.40723C9.99 6.13723 11.01 6.00223 12.03 6.00223C13.05 6.00223 14.07 6.13723 15.03 6.40723C17.325 4.84723 18.33 5.17723 18.33 5.17723C18.99 6.82723 18.57 8.05723 18.45 8.35723C19.215 9.19724 19.68 10.2622 19.68 11.5822C19.68 16.1872 16.875 17.2072 14.205 17.5072C14.64 17.8822 15.015 18.6022 15.015 19.7272C15.015 21.3322 15 22.6222 15 23.0272C15 23.3422 15.225 23.7172 15.825 23.5972C18.2072 22.793 20.2772 21.2619 21.7437 19.2196C23.2101 17.1773 23.9993 14.7265 24 12.2122C24 5.58223 18.63 0.212234 12 0.212234Z" fill="#F8F8F8"/>
</g>
</g>
</g>
</g>
</svg>
