<svg width="24" height="25" viewBox="0 0 24 25" fill="none" xmlns="http://www.w3.org/2000/svg">
<path id="instagram" d="M6.96 0.212234H17.04C20.88 0.212234 24 3.33223 24 7.17224V17.2522C24 19.0981 23.2667 20.8684 21.9615 22.1737C20.6562 23.479 18.8859 24.2122 17.04 24.2122H6.96C3.12 24.2122 0 21.0922 0 17.2522V7.17224C0 5.32633 0.733284 3.55602 2.03854 2.25077C3.34379 0.945518 5.11409 0.212234 6.96 0.212234ZM6.72 2.61223C5.57427 2.61223 4.47546 3.06738 3.6653 3.87753C2.85514 4.68769 2.4 5.7865 2.4 6.93223V17.4922C2.4 19.8802 4.332 21.8122 6.72 21.8122H17.28C18.4257 21.8122 19.5245 21.3571 20.3347 20.5469C21.1449 19.7368 21.6 18.638 21.6 17.4922V6.93223C21.6 4.54423 19.668 2.61223 17.28 2.61223H6.72ZM18.3 4.41223C18.6978 4.41223 19.0794 4.57027 19.3607 4.85157C19.642 5.13288 19.8 5.51441 19.8 5.91223C19.8 6.31006 19.642 6.69159 19.3607 6.9729C19.0794 7.2542 18.6978 7.41223 18.3 7.41223C17.9022 7.41223 17.5206 7.2542 17.2393 6.9729C16.958 6.69159 16.8 6.31006 16.8 5.91223C16.8 5.51441 16.958 5.13288 17.2393 4.85157C17.5206 4.57027 17.9022 4.41223 18.3 4.41223ZM12 6.21223C13.5913 6.21223 15.1174 6.84438 16.2426 7.96959C17.3679 9.09481 18 10.6209 18 12.2122C18 13.8035 17.3679 15.3297 16.2426 16.4549C15.1174 17.5801 13.5913 18.2122 12 18.2122C10.4087 18.2122 8.88258 17.5801 7.75736 16.4549C6.63214 15.3297 6 13.8035 6 12.2122C6 10.6209 6.63214 9.09481 7.75736 7.96959C8.88258 6.84438 10.4087 6.21223 12 6.21223ZM12 8.61224C11.0452 8.61224 10.1295 8.99152 9.45442 9.66665C8.77928 10.3418 8.4 11.2575 8.4 12.2122C8.4 13.167 8.77928 14.0827 9.45442 14.7578C10.1295 15.433 11.0452 15.8122 12 15.8122C12.9548 15.8122 13.8705 15.433 14.5456 14.7578C15.2207 14.0827 15.6 13.167 15.6 12.2122C15.6 11.2575 15.2207 10.3418 14.5456 9.66665C13.8705 8.99152 12.9548 8.61224 12 8.61224Z" fill="#F8F8F8"/>
</svg>
