<svg width="24" height="25" viewBox="0 0 24 25" fill="none" xmlns="http://www.w3.org/2000/svg">
<path id="linkedin" d="M20.448 20.6638H16.8936V15.0958C16.8936 13.7674 16.866 12.0586 15.0408 12.0586C13.188 12.0586 12.9048 13.5034 12.9048 14.9974V20.6638H9.3516V9.21223H12.7644V10.7722H12.8112C13.2876 9.87224 14.448 8.92424 16.1808 8.92424C19.782 8.92424 20.448 11.293 20.448 14.3782V20.6638ZM5.3364 7.64503C4.1916 7.64503 3.2724 6.71983 3.2724 5.58103C3.2724 4.44223 4.1928 3.51703 5.3364 3.51703C5.88381 3.51703 6.40879 3.73449 6.79587 4.12157C7.18294 4.50864 7.4004 5.03363 7.4004 5.58103C7.4004 6.12844 7.18294 6.65343 6.79587 7.0405C6.40879 7.42758 5.88381 7.64503 5.3364 7.64503ZM7.1172 20.665H3.5532V9.21223H7.1172V20.665ZM22.2264 0.212234H1.7712C0.792 0.212234 0 0.986235 0 1.94023V22.4842C0 23.4382 0.792 24.2122 1.7712 24.2122H22.2216C23.1996 24.2122 24 23.4394 24 22.4842V1.94023C24 0.987435 23.1996 0.212234 22.2216 0.212234H22.2264Z" fill="#F8F8F8"/>
</svg>
