<svg width="70" height="70" viewBox="0 0 70 70" fill="none" xmlns="http://www.w3.org/2000/svg">
<g id="Bash 1" clip-path="url(#clip0_36_107)">
<g id="Group">
<path id="Vector" d="M64.9855 14.263L39.7866 1.17222C36.7916 -0.390741 33.0583 -0.390741 30.0633 1.17222L4.8594 14.263C1.82771 15.8633 -0.0181076 18.7413 0.000133962 21.8393V48.0164C-0.016327 51.1129 1.82926 53.9888 4.8594 55.5883L30.0583 68.6747C33.0536 70.2367 36.7863 70.2367 39.7816 68.6747L64.9804 55.5883C68.0141 53.9891 69.8619 51.1109 69.8447 48.012V21.8393C69.863 18.7413 68.0172 15.8633 64.9855 14.263Z" fill="white"/>
<path id="Vector_2" d="M65.1286 14.2944L39.8742 1.17481C36.8727 -0.391602 33.1311 -0.391602 30.1295 1.17481L4.8701 14.2944C1.83173 15.8982 -0.0181475 18.7826 0.000134257 21.8874V48.1222C-0.0163629 51.2254 1.83329 54.1077 4.8701 55.7107L30.1245 68.8259C33.1264 70.3914 36.8673 70.3914 39.8692 68.8259L65.1235 55.7107C68.1639 54.108 70.0158 51.2235 69.9986 48.1177V21.8874C70.0169 18.7826 68.167 15.8982 65.1286 14.2944ZM31.0094 67.4852L5.75507 54.37C3.2594 53.0468 1.73933 50.6755 1.74991 48.1222V21.8874C1.73833 19.3338 3.25866 16.9622 5.75507 15.6396L31.0094 2.51995C33.4673 1.23692 36.5314 1.23692 38.9893 2.51995L64.2234 15.6396C66.3036 16.742 67.7227 18.5907 68.1021 20.6927C67.2626 19.1307 65.3764 18.7015 63.1766 19.8077L39.3028 32.7459C36.3243 34.2636 34.1296 35.976 34.1245 39.1177V64.879C34.1245 66.7595 34.9892 67.9764 36.3243 68.3348C35.8871 68.4049 35.4438 68.4419 34.9994 68.4454C33.595 68.4445 32.2168 68.1128 31.0094 67.4852Z" fill="#2F3A3E"/>
<path id="Vector_3" d="M58.4397 50.6023L52.1627 53.8871C51.9946 53.9462 51.882 54.0863 51.8751 54.2447V55.6885C51.8751 55.8651 52.0114 55.9357 52.1779 55.8518L58.5508 52.461C58.7068 52.3587 58.7815 52.1868 58.7425 52.0195V50.7524C58.7374 50.589 58.5911 50.5184 58.4397 50.6023Z" fill="#3AB14A"/>
<path id="Vector_4" d="M45.0821 38.5087C45.284 38.4204 45.4505 38.5087 45.4555 38.7603L45.4757 40.6765C46.2305 40.3764 47.0727 40.287 47.8876 40.4204C48.044 40.4557 48.1096 40.6412 48.0491 40.8619L47.5697 42.5441C47.5334 42.671 47.4584 42.787 47.3528 42.8796C47.3156 42.9116 47.2731 42.9385 47.2266 42.9591C47.1696 42.9861 47.1038 42.9954 47.0399 42.9856C46.2453 42.8316 45.4134 42.9484 44.7138 43.3123C43.6908 43.7155 43.0221 44.5958 42.9932 45.5772C42.9932 46.4603 43.4977 46.7031 45.2587 46.7296C47.5849 46.7649 48.594 47.6523 48.6193 49.7054C48.5639 51.8483 47.4346 53.8616 45.5312 55.211L45.5716 57.0918C45.568 57.3254 45.4293 57.5415 45.2032 57.6658L43.9317 58.306C43.7298 58.3943 43.5633 58.306 43.5583 58.0587V56.2088C42.4684 56.6062 41.3634 56.6989 40.6569 56.4516C40.5257 56.4075 40.4652 56.2353 40.5207 56.0366L40.9799 54.3368C41.0148 54.2023 41.0937 54.0795 41.2069 53.9836C41.2429 53.9535 41.2837 53.9282 41.328 53.9085C41.3938 53.8827 41.4691 53.8827 41.5349 53.9085C42.4344 54.1219 43.3939 54.0156 44.2042 53.6127C45.3735 53.1193 46.1334 52.0989 46.1771 50.9637C46.1771 50.01 45.5766 49.6126 44.1587 49.6038C42.3271 49.6038 40.6267 49.2948 40.5913 46.9547C40.6335 44.9105 41.7181 42.9897 43.5482 41.7184L43.4574 39.7935C43.4566 39.5565 43.5959 39.336 43.8257 39.2107L45.0821 38.5087Z" fill="white"/>
</g>
</g>
<defs>
<clipPath id="clip0_36_107">
<rect width="70" height="70" fill="white"/>
</clipPath>
</defs>
</svg>
