<svg width="70" height="70" viewBox="0 0 70 70" fill="none" xmlns="http://www.w3.org/2000/svg">
<g id="Bootstrap 1" clip-path="url(#clip0_36_117)">
<path id="Vector" fill-rule="evenodd" clip-rule="evenodd" d="M14.5392 0.00842285C10.5451 0.00842285 7.58967 4.39585 7.72201 9.15389C7.84902 13.7251 7.684 19.6454 6.49646 24.4735C5.30469 29.3151 3.29055 32.3832 0 32.777V37.2231C3.29055 37.6177 5.30469 40.6843 6.49633 45.5266C7.684 50.3547 7.84889 56.275 7.72187 60.8462C7.58953 65.6036 10.545 69.9917 14.5398 69.9917H55.4661C59.4602 69.9917 62.4151 65.6043 62.2828 60.8462C62.1558 56.275 62.3208 50.3547 63.5083 45.5266C64.7001 40.6843 66.7093 37.6165 70 37.2231V32.777C66.7095 32.3824 64.7002 29.3158 63.5083 24.4735C62.3206 19.6461 62.1558 13.7251 62.2828 9.15389C62.4151 4.39653 59.4602 0.00842285 55.4661 0.00842285H14.5387H14.5392ZM47.4577 43.0877C47.4577 49.6393 43.5638 53.6127 37.1018 53.6127H26.1017C25.787 53.6127 25.4852 53.4558 25.2627 53.1766C25.0402 52.8973 24.9152 52.5186 24.9152 52.1237V17.8766C24.9152 17.4817 25.0402 17.1029 25.2627 16.8237C25.4852 16.5444 25.787 16.3876 26.1017 16.3876H37.0392C42.4274 16.3876 45.9636 20.0506 45.9636 25.6744C45.9636 29.6217 43.5847 33.1555 40.5541 33.7746V33.9805C44.6797 34.5484 47.4577 38.1346 47.4577 43.0877ZM35.9023 21.1077H29.6302V32.2264H34.9129C38.9967 32.2264 41.2485 30.1626 41.2485 26.4737C41.248 23.0166 39.3121 21.1077 35.9023 21.1077ZM29.6302 36.638V48.891H36.1331C40.3851 48.891 42.6372 46.7498 42.6372 42.7258C42.6372 38.7018 40.3219 36.6373 35.8597 36.6373H29.6302V36.638Z" fill="#7952B3"/>
</g>
<defs>
<clipPath id="clip0_36_117">
<rect width="70" height="70" fill="white"/>
</clipPath>
</defs>
</svg>
