<svg width="70" height="70" viewBox="0 0 70 70" fill="none" xmlns="http://www.w3.org/2000/svg">
<g id="Git 1" clip-path="url(#clip0_36_126)">
<path id="Vector" d="M68.6766 31.8784L38.1128 1.31687C36.3519 -0.441885 33.4994 -0.441885 31.7319 1.31687L25.3991 7.66062L33.4491 15.7106C35.3303 15.0828 37.4719 15.5072 38.9594 16.9969C40.4644 18.4997 40.8778 20.6653 40.2369 22.5378L47.9894 30.2969C49.8706 29.6472 52.0341 30.0694 53.5303 31.5656C55.6325 33.6656 55.6325 37.0606 53.5303 39.1606C51.4325 41.2584 48.0441 41.2584 45.9462 39.1606C44.3734 37.5834 43.9797 35.2603 44.7672 33.3397L37.5069 26.1187V45.15C38.0209 45.4016 38.5044 45.7428 38.9309 46.165C41.0113 48.2672 41.0113 51.6578 38.9309 53.749C36.8331 55.8512 33.4206 55.8512 31.3206 53.749C29.2228 51.6512 29.2228 48.2694 31.3206 46.1716C31.8522 45.6466 32.4494 45.2506 33.0859 44.9881V25.7709C32.4537 25.5062 31.85 25.1234 31.3359 24.6006C29.7456 23.0103 29.365 20.6872 30.1809 18.7403L22.2709 10.7931L1.3125 31.7384C-0.4375 33.5037 -0.4375 36.3584 1.3125 38.1237L31.8784 68.6809C33.6394 70.4419 36.4919 70.4419 38.255 68.6809L68.6766 38.2594C70.4419 36.5006 70.4419 33.6459 68.6766 31.8806V31.8784Z" fill="#F05032"/>
</g>
<defs>
<clipPath id="clip0_36_126">
<rect width="70" height="70" fill="white"/>
</clipPath>
</defs>
</svg>
