<svg width="70" height="70" viewBox="0 0 70 70" fill="none" xmlns="http://www.w3.org/2000/svg">
<g id="Github 1" clip-path="url(#clip0_36_105)">
<path id="Vector" d="M35 0.866201C15.6625 0.866201 0 16.5374 0 35.8662C0 51.334 10.0275 64.4503 23.9312 69.0724C25.6812 69.4028 26.3222 68.3199 26.3222 67.3903C26.3222 66.559 26.2937 64.3562 26.2784 61.4403C16.5419 63.5512 14.49 56.7437 14.49 56.7437C12.8975 52.7034 10.5962 51.6249 10.5962 51.6249C7.42656 49.4549 10.8412 49.4987 10.8412 49.4987C14.3566 49.7437 16.2028 53.1037 16.2028 53.1037C19.3244 58.4565 24.395 56.9099 26.3966 56.0153C26.7116 53.7512 27.6128 52.209 28.6125 51.334C20.8403 50.459 12.67 47.449 12.67 34.0374C12.67 30.2159 14.0263 27.0965 16.2728 24.6465C15.8791 23.7628 14.6978 20.2037 16.5791 15.3824C16.5791 15.3824 19.5103 14.444 26.2041 18.9699C29.0041 18.1912 31.9791 17.8062 34.9541 17.7887C37.9291 17.8062 40.9041 18.1912 43.7041 18.9699C50.3541 14.444 53.2853 15.3824 53.2853 15.3824C55.1666 20.2037 53.9853 23.7628 53.6353 24.6465C55.8666 27.0965 57.2228 30.2181 57.2228 34.0374C57.2228 47.484 49.0416 50.4437 41.2541 51.3034C42.4791 52.3534 43.6166 54.4993 43.6166 57.7784C43.6166 62.4618 43.5728 66.2243 43.5728 67.3618C43.5728 68.2806 44.1853 69.3743 45.9791 69.0243C59.9812 64.4328 70 51.3078 70 35.864C70 16.5353 54.3288 0.866201 35 0.866201Z" fill="white"/>
</g>
<defs>
<clipPath id="clip0_36_105">
<rect width="70" height="70" fill="white"/>
</clipPath>
</defs>
</svg>
