<svg width="80" height="62" viewBox="0 0 80 62" fill="none" xmlns="http://www.w3.org/2000/svg">
<g id="Nodejs">
<path id="Vector" d="M39.538 61.2478C39.2745 61.2478 39.0123 61.1544 38.7745 60.9981L36.375 59.2166C36.0123 58.9669 36.1875 58.8734 36.3125 58.826C36.788 58.6222 36.8873 58.5763 37.3995 58.201C37.4498 58.1703 37.5245 58.1856 37.5748 58.2163L39.4252 59.5919C39.4877 59.6378 39.587 59.6378 39.6495 59.5919L46.875 54.3728C46.9375 54.3253 46.9877 54.2319 46.9877 54.1231V43.7003C46.9877 43.5916 46.9498 43.4981 46.875 43.4506L39.6495 38.2484C39.587 38.201 39.5 38.201 39.4252 38.2484L32.1998 43.4506C32.125 43.4981 32.087 43.6069 32.087 43.7003V54.1231C32.087 54.2166 32.1373 54.31 32.1998 54.3575L34.1752 55.7791C35.25 56.4516 35.913 55.6535 35.913 54.8722V44.5766C35.913 44.4356 36 44.31 36.125 44.31H37.038C37.1495 44.31 37.25 44.4203 37.25 44.5766V54.8722C37.25 56.6691 36.4755 57.6847 35.1127 57.6847C34.6998 57.6847 34.3627 57.6847 33.4498 57.1225L31.5502 55.7638C31.087 55.4191 30.788 54.7941 30.788 54.1231V43.7003C30.788 43.0294 31.0748 42.3891 31.5502 42.0597L38.7745 36.8422C39.2377 36.5128 39.837 36.5128 40.288 36.8422L47.5123 42.0597C47.9755 42.4044 48.2745 43.0294 48.2745 43.7003V54.1231C48.2745 54.7941 47.9877 55.4359 47.5123 55.7638L40.288 60.9828C40.0748 61.1544 39.8125 61.2478 39.538 61.2478ZM45.375 50.966C45.375 49.0128 44.3248 48.4981 42.1005 48.1228C39.8505 47.7475 39.625 47.5606 39.625 46.9035C39.625 46.3566 39.8125 45.6381 41.4755 45.6381C42.962 45.6381 43.5123 46.0441 43.7377 47.2941C43.7623 47.4197 43.837 47.4978 43.9375 47.4978H44.875C44.9375 47.4978 44.9877 47.4672 45.0245 47.4197C45.0625 47.3569 45.087 47.2941 45.0748 47.216C44.9252 45.0606 43.788 44.0603 41.4755 44.0603C39.413 44.0603 38.1875 45.1541 38.1875 46.9663C38.1875 48.9516 39.413 49.4816 41.3873 49.7328C43.75 50.0285 43.9375 50.4513 43.9375 51.0288C43.9375 52.0444 43.288 52.4672 41.7623 52.4672C39.8505 52.4672 39.4252 51.8728 39.288 50.6856C39.2745 50.56 39.1875 50.4666 39.0748 50.4666H38.1373C38.0245 50.4666 37.9252 50.5753 37.9252 50.7316C37.9252 52.2481 38.587 54.0603 41.75 54.0603C44.0625 54.0603 45.375 52.9359 45.375 50.966ZM52.1875 43.1381C52.1875 44.091 51.5625 44.8722 50.8002 44.8722C50.038 44.8722 49.413 44.091 49.413 43.1381C49.413 42.1547 50.0625 41.4041 50.8002 41.4041C51.5502 41.3888 52.1875 42.1547 52.1875 43.1381ZM51.962 43.1381C51.962 42.3263 51.4375 41.6859 50.788 41.6859C50.1495 41.6859 49.625 42.3263 49.625 43.1381C49.625 43.9516 50.1495 44.6072 50.788 44.6072C51.4375 44.5919 51.962 43.9347 51.962 43.1381ZM51.3995 44.1078H51.0748C51.0625 44.0128 51.0123 43.5135 51.0123 43.4981C50.9877 43.3878 50.962 43.3266 50.8505 43.3266H50.5748V44.1078H50.2745V42.1547H50.8125C51 42.1547 51.3627 42.1547 51.3627 42.6694C51.3627 43.0294 51.1752 43.1075 51.0625 43.1535C51.2745 43.1703 51.288 43.3419 51.3248 43.5916C51.337 43.7478 51.3627 44.0128 51.3995 44.1078ZM51.0502 42.7322C51.0502 42.4672 50.8995 42.4672 50.8248 42.4672H50.5748V43.0141H50.8125C51.0123 43.0141 51.0502 42.841 51.0502 42.7322ZM17.163 20.4666C17.163 20.0453 16.9877 19.67 16.6998 19.4663L9.03799 13.9516C8.91299 13.8566 8.76226 13.8106 8.61275 13.7953H8.53799C8.38725 13.7953 8.25 13.8566 8.11275 13.9516L0.46201 19.4663C0.175245 19.67 0 20.0606 0 20.4666L0.0122549 35.3103C0.0122549 35.5141 0.10049 35.701 0.237745 35.8097C0.375 35.92 0.550245 35.92 0.699755 35.8097L5.25 32.5453C5.53799 32.3263 5.71201 31.951 5.71201 31.545V24.6072C5.71201 24.2013 5.88726 23.8106 6.17525 23.6069L8.11275 22.216C8.26226 22.1072 8.41299 22.0597 8.57476 22.0597C8.73775 22.0597 8.89951 22.1072 9.03799 22.216L10.9755 23.6069C11.2623 23.8106 11.4375 24.2013 11.4375 24.6072V31.545C11.4375 31.951 11.6127 32.3416 11.8995 32.5453L16.4498 35.8097C16.587 35.92 16.7745 35.92 16.913 35.8097C17.0502 35.7163 17.1373 35.5141 17.1373 35.3103L17.163 20.4666ZM59.0625 4.26406V31.8253C59.0625 32.2328 58.8873 32.6234 58.6005 32.8256L50.9375 38.3572C50.6495 38.5609 50.3002 38.5609 50.0123 38.3572L42.3505 32.8256C42.0625 32.6234 41.8873 32.2328 41.8873 31.8253V20.7638C41.8873 20.3578 42.0625 19.9672 42.3505 19.7635L50.0123 14.2319C50.3002 14.0297 50.6495 14.0297 50.9375 14.2319L52.8505 15.6075C53.0625 15.7638 53.337 15.56 53.337 15.2628V0.575339C53.337 0.138758 53.712 -0.143105 54.0245 0.0759514L58.587 3.26376C58.875 3.45065 59.0625 3.84127 59.0625 4.26406ZM53.3125 24.4035C53.3125 24.2947 53.2623 24.2013 53.1998 24.1538L50.5748 22.2481C50.5 22.2006 50.413 22.2006 50.337 22.2481L47.712 24.1538C47.6373 24.2013 47.6005 24.2947 47.6005 24.4035V28.201C47.6005 28.3097 47.6495 28.4047 47.712 28.4506L50.337 30.341C50.413 30.3885 50.5 30.3885 50.5625 30.341L53.1875 28.4506C53.2623 28.4047 53.3002 28.3097 53.3002 28.201V24.4035H53.3125ZM79.538 24.2947C79.8248 24.091 80 23.7003 80 23.2944V20.6228C80 20.2169 79.8248 19.8263 79.538 19.6225L71.9252 14.091C71.6373 13.8888 71.288 13.8888 71 14.091L63.337 19.6225C63.0502 19.8263 62.875 20.2169 62.875 20.6228V31.6859C62.875 32.1072 63.0502 32.4825 63.337 32.6847L70.9498 38.1075C71.2255 38.3097 71.5748 38.3097 71.8627 38.1075L76.462 34.9044C76.7745 34.6853 76.7745 34.1231 76.462 33.9041L68.75 28.3725C68.6005 28.2638 68.5123 28.0753 68.5123 27.8731V24.4035C68.5123 24.2013 68.6005 24.0128 68.75 23.9041L71.1495 22.17C71.288 22.0597 71.4755 22.0597 71.6127 22.17L74.0123 23.9041C74.1495 24.0128 74.25 24.2013 74.25 24.4035V27.1225C74.25 27.5606 74.6373 27.841 74.9498 27.6234L79.538 24.2947ZM69.875 24.8416C69.8248 24.8891 69.788 24.9503 69.788 25.0285V27.1547C69.788 27.2328 69.8248 27.3109 69.875 27.3416L71.3505 28.4047C71.3995 28.4506 71.4755 28.4506 71.5245 28.4047L73 27.3416C73.0502 27.2941 73.087 27.2328 73.087 27.1547V25.0285C73.087 24.9503 73.0502 24.8722 73 24.8416L71.5245 23.7785C71.4755 23.7325 71.3995 23.7325 71.3505 23.7785L69.875 24.8416ZM38.1005 31.6385V20.6381C38.1005 20.2322 37.8995 19.8416 37.6127 19.6378L29.9755 14.1385C29.712 13.9516 29.3505 13.9194 29.0502 14.1385L21.413 19.6378C21.125 19.8416 20.9252 20.2169 20.9252 20.6381V31.6385C20.9252 32.0766 21.163 32.4503 21.4252 32.6388L29.0748 38.1381C29.375 38.3572 29.7255 38.3419 30 38.1381L37.625 32.6388C37.8505 32.4825 38.0123 32.216 38.0748 31.9035C38.087 31.8253 38.1005 31.7319 38.1005 31.6385ZM28.8125 12.1225L28.712 12.2006H28.8505L28.8125 12.1225ZM38.337 32.4672L38.288 32.3569V32.4978L38.337 32.4672Z" fill="#539E43"/>
</g>
</svg>
