<svg width="81" height="70" viewBox="0 0 81 70" fill="none" xmlns="http://www.w3.org/2000/svg">
<g id="Redux">
<path id="Vector" d="M55.8913 48.8874C58.8435 48.6058 61.0832 46.2601 60.9813 43.4449C60.8797 40.63 58.3344 38.378 55.2803 38.378H55.0769C51.9206 38.4719 49.4775 40.9114 49.5794 43.8202C49.6813 45.2278 50.2919 46.4476 51.2082 47.2921C47.7469 53.5791 42.4532 58.1768 34.5125 62.024C29.1169 64.6514 23.5178 65.5898 17.9188 64.9331C13.3375 64.37 9.7744 62.4935 7.5344 59.3966C4.2769 54.7989 3.97159 49.8255 6.72034 44.8525C8.65471 41.2867 11.7085 38.6594 13.6428 37.3457C13.2357 36.1259 12.6247 34.0616 12.3194 32.5604C-2.44216 42.4129 -0.914974 55.7373 3.5644 62.024C6.92378 66.7159 13.7447 69.6247 21.2782 69.6247C23.3141 69.6247 25.35 69.4369 27.3863 68.968C40.4172 66.622 50.2922 59.4905 55.8913 48.8874ZM73.8088 37.2521C66.0716 28.9008 54.6697 24.303 41.6388 24.303H40.01C39.0938 22.614 37.1594 21.4879 35.0216 21.4879H34.8178C31.6622 21.5818 29.2191 24.0213 29.3207 26.9304C29.4225 29.7453 31.9675 31.9973 35.0216 31.9973H35.225C37.4647 31.9034 39.3991 30.5898 40.2135 28.8069H42.046C49.7832 28.8069 57.1128 30.8712 63.7303 34.9061C68.8203 38.0027 72.4853 42.0376 74.5213 46.9168C76.2519 50.8578 76.15 54.705 74.3175 57.9893C71.4672 62.9624 66.6825 65.6837 60.3706 65.6837C56.2985 65.6837 52.43 64.5575 50.3938 63.713C49.2741 64.6514 47.2378 66.1526 45.8125 67.0912C50.1903 68.9677 54.6697 70 58.9453 70C68.7185 70 75.9466 65.0267 78.6953 60.0536C81.6475 54.6111 81.4438 45.2278 73.8088 37.2521ZM22.0925 50.4822C22.1944 53.2974 24.7394 55.5492 27.7935 55.5492H27.9972C31.1532 55.4556 33.5963 53.0157 33.4944 50.1069C33.3928 47.2918 30.8475 45.04 27.7935 45.04H27.59C27.3863 45.04 27.0807 45.04 26.8775 45.1336C22.7035 38.753 20.9728 31.8095 21.5838 24.3027C21.9906 18.6727 24.0269 13.7933 27.59 9.75831C30.5422 6.28645 36.2431 4.59746 40.1119 4.50386C50.9028 4.31606 55.4838 16.702 55.7894 21.6754C57.1128 21.9568 59.3525 22.6138 60.8797 23.0829C59.6578 7.88211 49.4775 0 39.7047 0C30.5422 0 22.0925 6.09923 18.7328 15.1072C14.05 27.1179 17.1041 38.6594 22.805 47.7613C22.2963 48.418 21.9906 49.45 22.0925 50.4822Z" fill="#764ABC"/>
</g>
</svg>
