<svg width="71" height="80" viewBox="0 0 71 80" fill="none" xmlns="http://www.w3.org/2000/svg">
<g id="Saas 1" clip-path="url(#clip0_36_122)">
<path id="Vector" d="M60.6971 45.9815C58.2564 46.001 56.1352 46.8972 54.359 48.2221C53.7073 46.2543 53.0556 44.5007 52.9406 43.2148C52.8128 41.7146 52.6595 40.7988 52.8128 39.0063C52.9662 37.2138 53.6562 34.6615 53.6434 34.4666C53.6306 34.2718 53.4901 33.3561 52.0845 33.3366C50.6788 33.3171 49.4649 33.7458 49.3243 34.3108C49.1838 34.8758 48.9154 36.1617 48.7365 37.4866C48.4937 39.435 45.9253 46.3907 44.4558 50.0341C43.983 48.6118 43.574 47.3648 43.4846 46.3712C43.3568 44.8709 43.2035 43.9552 43.3568 42.1627C43.5102 40.3702 44.2002 37.8178 44.1874 37.623C44.1746 37.4282 44.0341 36.5124 42.6284 36.493C41.2228 36.4735 40.0089 36.9021 39.8683 37.4671C39.7278 38.0322 39.5744 39.3571 39.2805 40.643C38.9866 41.9289 35.5748 53.5412 34.6803 56.5417C34.2203 58.0809 33.8241 59.3083 33.543 60.1461C33.543 60.1461 33.5302 60.2046 33.4919 60.302C33.2491 61.0229 33.1085 61.4126 33.1085 61.4126C33.1085 61.4126 33.1085 61.4126 33.1085 61.4321C32.9169 61.9581 32.7124 62.4452 32.6102 62.4452C32.5335 62.4452 32.393 61.0424 32.6357 59.133C33.1469 55.0999 34.3608 48.8261 34.3481 48.6118C34.3481 48.4949 34.5781 47.4038 33.5558 46.8388C32.5591 46.2738 32.2013 47.209 32.1118 47.209C32.0224 47.209 31.9585 47.5402 31.9585 47.5402C31.9585 47.5402 33.0702 40.4871 29.8373 40.4871C27.8183 40.4871 25.0326 43.8578 23.6525 46.8972C22.7836 47.6181 20.9307 49.1573 18.9501 50.8135C18.1962 51.4564 17.4167 52.0994 16.6883 52.7034C16.6372 52.6254 16.5861 52.528 16.535 52.4501C12.6248 46.0789 5.39223 41.5782 5.69891 33.0249C5.81392 29.9075 6.51673 21.7243 19.589 11.7876C30.3484 3.70191 38.9099 5.94253 40.3922 10.9109C42.5134 18.0029 35.8048 31.1739 24.6876 33.0833C20.4452 33.8042 18.2217 31.3103 17.6595 30.3751C17.0717 29.4009 16.9822 29.3424 16.765 29.5373C16.4072 29.8295 16.6372 30.7063 16.765 31.2129C17.0972 32.5378 18.4645 34.8758 20.7774 36.0253C22.8219 37.0385 27.7927 37.6035 33.8114 34.0575C40.5456 30.0828 45.8103 19.0356 44.2641 9.78082C42.7179 0.389685 32.4952 -2.70822 22.8219 2.53289C17.0717 5.65028 10.8358 10.5602 6.35061 16.9508C1.02202 24.5495 0.178647 31.1544 0.523663 33.9211C1.76317 43.7409 10.6441 50.1315 14.1965 54.8661C14.0176 55.0219 13.8515 55.1583 13.711 55.2752C11.9348 56.6196 5.16222 62.0166 3.47547 67.7253C1.55871 74.1939 3.78215 78.831 5.25167 79.4545C9.81355 81.3833 14.5032 77.9153 17.0206 72.1871C19.5379 66.4589 19.2312 59.0161 18.0684 55.6064C18.0556 55.5675 18.0428 55.5285 18.0173 55.4895C18.4773 55.0804 18.9501 54.6517 19.4101 54.2426C20.3174 53.4243 21.2119 52.6644 21.9786 52.0409C21.5441 53.8529 21.2246 56.0156 21.0713 59.133C20.8796 62.7959 21.8636 67.5499 23.1542 69.4204C23.7292 70.2387 24.4065 70.2582 24.8409 70.2582C26.3488 70.2582 27.026 68.3488 27.78 66.0887C28.7 63.322 29.5306 60.1072 29.5306 60.1072C29.5306 60.1072 28.4955 68.7969 31.3068 68.7969C32.3291 68.7969 33.3641 66.7706 33.8241 65.738C33.8241 65.7574 33.8241 65.7574 33.8241 65.7574C33.8241 65.7574 33.8497 65.699 33.9008 65.5626C34.003 65.3093 34.0669 65.1534 34.0669 65.1534C34.0669 65.1534 34.0669 65.134 34.0669 65.1145C34.4758 64.0234 35.3959 61.549 36.7632 57.4379C38.5266 52.1383 40.2261 45.5139 40.2261 45.5139C40.2261 45.5139 40.3795 47.131 40.9034 49.8198C41.21 51.398 41.849 53.132 42.3601 54.8076C41.9512 55.6844 41.6956 56.1715 41.6956 56.1715C41.6956 56.1715 41.6956 56.1715 41.7084 56.1909C41.3762 56.8534 41.0184 57.5743 40.6222 58.2757C39.2294 60.8086 37.5682 63.7116 37.3382 64.5494C37.0698 65.5431 37.1337 66.264 37.6449 66.8485C38.0154 67.2772 38.6799 67.3356 39.3572 67.2772C40.6095 67.1408 41.4912 66.6732 41.9256 66.3809C42.6029 66.0107 43.3951 65.4457 44.1363 64.6079C45.5036 63.0687 46.3342 60.867 46.2575 57.964C46.2192 56.3663 45.8742 54.7686 45.4525 53.2684C45.5803 52.9956 45.6953 52.7229 45.823 52.4501C47.9826 47.6376 49.6566 42.3575 49.6566 42.3575C49.6566 42.3575 49.8099 43.9747 50.3338 46.6634C50.5894 48.0273 51.1133 49.508 51.5733 50.9498C49.5416 53.4632 48.2893 56.3858 47.842 58.2952C47.037 61.8412 47.6631 63.4389 48.8515 63.8091C49.3882 63.9844 50.1549 63.5948 50.7172 63.2246C51.4328 62.8739 52.2761 62.2699 53.0812 61.3736C54.4485 59.8344 55.7646 57.6912 55.688 54.7881C55.6496 53.4632 55.4196 52.1578 55.1002 50.8914C56.8252 49.8003 59.0487 49.1963 61.8855 49.7029C67.968 50.794 69.1692 56.5806 68.9392 59.0161C68.7091 61.4515 67.4313 62.7764 67.0096 63.1856C66.5879 63.5947 66.4474 63.7311 66.4857 64.0234C66.5368 64.452 66.7413 64.4325 67.0991 64.3546C67.5974 64.2182 70.2937 62.3868 70.4087 57.9055C70.6003 52.1773 67.0224 45.9231 60.6971 45.9815ZM13.7748 70.1023C11.7559 73.4535 8.94462 74.7199 7.73067 73.6483C6.42728 72.4988 6.93841 67.5499 9.41742 64.0039C10.9253 61.8412 12.8676 59.8344 14.1582 58.6069C14.4521 58.3342 14.8866 57.9445 15.4105 57.4574C15.4999 57.3795 15.551 57.3405 15.551 57.3405C15.6533 57.2431 15.7555 57.1456 15.8577 57.0482C16.765 62.114 15.8961 66.5758 13.7748 70.1023ZM28.47 54.8661C27.7672 57.4769 26.2977 64.1598 25.4032 63.7896C24.6365 63.4778 24.1637 58.4121 25.2498 53.4048C25.7993 50.8914 26.9621 47.8909 27.6394 46.7219C28.7383 44.8515 29.9523 44.228 30.2462 44.9878C30.6168 45.9815 28.9045 53.2294 28.47 54.8661ZM40.5967 63.7117C40.3028 63.9455 40.0217 64.1013 39.8939 63.9844C39.8044 63.9065 40.0217 63.5947 40.0217 63.5947C40.0217 63.5947 41.5423 61.1008 42.1429 59.9708C42.4879 59.3083 42.8968 58.529 43.3313 57.6522C43.3313 57.7302 43.3313 57.8276 43.3313 57.9055C43.3313 60.8865 41.4401 62.8933 40.5967 63.7117ZM49.9505 60.4579C49.7332 60.2241 49.7716 59.4447 50.4999 57.0093C50.7811 56.0546 51.4455 54.4569 52.5828 52.9177C52.7106 53.5412 52.8 54.1452 52.7873 54.7102C52.7745 58.4705 51.0111 59.8734 49.9505 60.4579Z" fill="#CD6799"/>
</g>
<defs>
<clipPath id="clip0_36_122">
<rect width="70" height="80" fill="white" transform="translate(0.459717)"/>
</clipPath>
</defs>
</svg>
