<svg width="70" height="70" viewBox="0 0 70 70" fill="none" xmlns="http://www.w3.org/2000/svg">
<g id="vite 1" clip-path="url(#clip0_36_113)">
<g id="Group">
<path id="Vector" d="M69.7684 10.3333L36.8859 68.9041C36.2069 70.1134 34.4627 70.1205 33.7736 68.9171L0.239102 10.3389C-0.511633 9.0275 0.614128 7.43905 2.10599 7.70467L35.0237 13.5656C35.2337 13.603 35.4487 13.6027 35.6587 13.5645L67.888 7.71307C69.3749 7.44313 70.5059 9.01928 69.7684 10.3333Z" fill="url(#paint0_linear_36_113)"/>
<path id="Vector_2" d="M50.7042 0.0171878L26.3702 4.76679C25.9702 4.84485 25.6741 5.18248 25.65 5.58766L24.1531 30.7704C24.1179 31.3636 24.6648 31.8239 25.2459 31.6904L32.0209 30.1329C32.6548 29.9873 33.2275 30.5435 33.0972 31.1784L31.0844 40.9965C30.949 41.6573 31.5718 42.2224 32.2196 42.0264L36.4041 40.76C37.0528 40.5638 37.6762 41.1304 37.5389 41.7917L34.3402 57.2138C34.14 58.1785 35.4282 58.7045 35.9654 57.8774L36.3242 57.325L56.153 17.9074C56.485 17.2474 55.9124 16.4948 55.1847 16.6347L48.211 17.9754C47.5557 18.1012 46.9981 17.4933 47.1831 16.8546L51.7347 1.13735C51.9198 0.497606 51.3603 -0.110845 50.7042 0.0171878Z" fill="url(#paint1_linear_36_113)"/>
</g>
</g>
<defs>
<linearGradient id="paint0_linear_36_113" x1="-57.9668" y1="483.162" x2="3470.5" y2="5293.82" gradientUnits="userSpaceOnUse">
<stop stop-color="#41D1FF"/>
<stop offset="1" stop-color="#BD34FE"/>
</linearGradient>
<linearGradient id="paint1_linear_36_113" x1="1416.44" y1="130.67" x2="2140.43" y2="5116.58" gradientUnits="userSpaceOnUse">
<stop stop-color="#FFEA83"/>
<stop offset="0.0833333" stop-color="#FFDD35"/>
<stop offset="1" stop-color="#FFA800"/>
</linearGradient>
<clipPath id="clip0_36_113">
<rect width="70" height="70" fill="white"/>
</clipPath>
</defs>
</svg>
